Big Mommas Like Father Like Son 2011 TS XViD D3MT


Rip Info:

[code]
Format                           : AVI
Format/Info                      : Audio Video Interleave
File size                        : 946 MiB
Duration                         : 1h 39mn
Overall bit rate                 : 1 327 Kbps
Writing application              : Lavf52.39.1

Video
ID                               : 0
Format                           : xvid
Codec ID                         : xvid
Duration                         : 1h 39mn
Bit rate                         : 1 250 Kbps
Width                            : 656 pixels
Height                           : 368 pixels
Display aspect ratio             : 16:9
Frame rate                       : 25.000 fps
Bits/(Pixel*Frame)               : 0.207
Stream size                      : 892 MiB (94%)

Audio
ID                               : 1
Format                           : MPEG Audio
Format version                   : Version 1
Format profile                   : Layer 3
Mode                             : Joint stereo
Mode extension                   : MS Stereo
Codec ID                         : 55
Codec ID/Hint                    : MP3
Duration                         : 1h 39mn
Bit rate mode                    : Constant
Bit rate                         : 64.0 Kbps
Channel(s)                       : 2 channels
Sampling rate                    : 44.1 KHz
Compression mode                 : Lossy
Stream size                      : 45.6 MiB (5%)
Alignment                        : Aligned on interleaves
Interleave, duration             : 26 ms (0.65 video frame)
Interleave, preload duration     : 26 ms
[/code]

Screens:

[img]http://img263.imageshack.us/img263/7946/vlcsnap2011022123h20m51.png[/img]

[img]http://img827.imageshack.us/img827/9538/vlcsnap2011022123h21m32.png[/img]

[img]http://img843.imageshack.us/img843/6883/vlcsnap2011022123h21m33.png[/img]

[img]http://img101.imageshack.us/img101/1918/vlcsnap2011022123h22m55.png[/img]